<svg data-v-423bf9ae="" xmlns="http://www.w3.org/2000/svg" viewBox="0 0 376 90" class="iconLeft"><!----><!----><!----><g data-v-423bf9ae="" id="21cecc45-f81e-4cdc-8c92-b710751f346f" fill="black" transform="matrix(7.307732067851167,0,0,7.307732067851167,90.42738748477996,3.5943150761311387)"><path d="M5.67 6.80L5.67 6.80L5.67 6.80Q5.56 6.71 5.36 6.61L5.36 6.61L5.36 6.61Q5.15 6.51 4.89 6.42L4.89 6.42L4.89 6.42Q4.62 6.33 4.31 6.27L4.31 6.27L4.31 6.27Q4.00 6.20 3.70 6.16L3.70 6.16L3.70 6.16Q3.57 6.15 3.44 6.09L3.44 6.09L3.44 6.09Q3.30 6.03 3.19 5.95L3.19 5.95L3.19 5.95Q3.08 5.87 3.02 5.75L3.02 5.75L3.02 5.75Q2.95 5.63 2.97 5.49L2.97 5.49L2.98 5.46L2.98 5.46Q3.21 5.14 3.52 4.96L3.52 4.96L3.52 4.96Q3.84 4.77 4.19 4.69L4.19 4.69L4.19 4.69Q4.54 4.61 4.89 4.60L4.89 4.60L4.89 4.60Q5.25 4.59 5.54 4.62L5.54 4.62L5.54 4.62Q5.70 4.63 5.84 4.66L5.84 4.66L5.84 4.66Q5.98 4.69 6.12 4.68L6.12 4.68L6.12 4.68Q6.15 4.68 6.17 4.61L6.17 4.61L6.17 4.61Q6.20 4.54 6.22 4.46L6.22 4.46L6.22 4.46Q6.24 4.38 6.27 4.31L6.27 4.31L6.27 4.31Q6.30 4.24 6.34 4.21L6.34 4.21L6.34 4.21Q6.40 4.06 6.50 3.96L6.50 3.96L6.50 3.96Q6.59 3.85 6.57 3.70L6.57 3.70L6.57 3.70Q6.51 3.65 6.40 3.61L6.40 3.61L6.40 3.61Q6.29 3.57 6.22 3.54L6.22 3.54L6.22 3.54Q5.91 3.44 5.49 3.44L5.49 3.44L5.49 3.44Q5.07 3.43 4.60 3.52L4.60 3.52L4.60 3.52Q4.13 3.61 3.66 3.78L3.66 3.78L3.66 3.78Q3.19 3.95 2.80 4.20L2.80 4.20L2.80 4.20Q2.41 4.45 2.13 4.78L2.13 4.78L2.13 4.78Q1.85 5.11 1.76 5.52L1.76 5.52L1.76 5.52Q1.67 5.94 1.75 6.20L1.75 6.20L1.75 6.20Q1.83 6.47 2.03 6.64L2.03 6.64L2.03 6.64Q2.23 6.82 2.50 6.92L2.50 6.92L2.50 6.92Q2.77 7.01 3.07 7.08L3.07 7.08L3.07 7.08Q3.37 7.15 3.67 7.22L3.67 7.22L3.67 7.22Q3.96 7.29 4.20 7.41L4.20 7.41L4.20 7.41Q4.31 7.46 4.45 7.57L4.45 7.57L4.45 7.57Q4.58 7.69 4.55 7.85L4.55 7.85L4.55 7.85Q4.48 8.23 3.92 8.46L3.92 8.46L3.92 8.46Q3.36 8.69 2.49 8.67L2.49 8.67L2.49 8.67Q2.35 8.67 2.19 8.61L2.19 8.61L2.19 8.61Q2.03 8.55 1.87 8.46L1.87 8.46L1.87 8.46Q1.71 8.37 1.58 8.26L1.58 8.26L1.58 8.26Q1.46 8.15 1.37 8.05L1.37 8.05L1.20 7.88L1.20 7.88Q0.92 8.11 0.78 8.48L0.78 8.48L0.78 8.48Q0.63 8.85 0.50 9.11L0.50 9.11L0.50 9.11Q0.87 9.35 1.27 9.51L1.27 9.51L1.27 9.51Q1.67 9.67 2.16 9.70L2.16 9.70L2.16 9.70Q2.46 9.72 2.86 9.67L2.86 9.67L2.86 9.67Q3.26 9.63 3.68 9.54L3.68 9.54L3.68 9.54Q4.09 9.45 4.49 9.28L4.49 9.28L4.49 9.28Q4.89 9.11 5.20 8.88L5.20 8.88L5.20 8.88Q5.52 8.64 5.71 8.31L5.71 8.31L5.71 8.31Q5.91 7.98 5.91 7.56L5.91 7.56L5.91 7.56Q5.91 7.29 5.89 7.13L5.89 7.13L5.89 7.13Q5.87 6.97 5.67 6.80ZM10.51 9.30L10.51 9.30L10.51 9.30Q10.67 9.23 10.88 9.11L10.88 9.11L10.88 9.11Q11.10 8.99 11.32 8.84L11.32 8.84L11.32 8.84Q11.54 8.69 11.72 8.53L11.72 8.53L11.72 8.53Q11.90 8.36 11.98 8.20L11.98 8.20L11.98 8.20Q12.04 7.84 11.94 7.69L11.94 7.69L11.94 7.69Q11.84 7.55 11.68 7.46L11.68 7.46L11.68 7.46Q11.13 7.88 10.49 8.23L10.49 8.23L10.49 8.23Q9.86 8.57 9.20 8.57L9.20 8.57L9.20 8.57Q8.64 8.57 8.36 8.34L8.36 8.34L8.36 8.34Q8.08 8.11 8.04 7.76L8.04 7.76L8.04 7.76Q8.01 7.41 8.18 6.99L8.18 6.99L8.18 6.99Q8.34 6.57 8.68 6.20L8.68 6.20L8.68 6.20Q9.02 5.82 9.48 5.55L9.48 5.55L9.48 5.55Q9.94 5.28 10.49 5.21L10.49 5.21L10.49 5.21Q10.53 5.24 10.61 5.24L10.61 5.24L10.61 5.24Q10.71 5.24 10.81 5.24L10.81 5.24L10.81 5.24Q10.92 5.24 11.00 5.24L11.00 5.24L11.00 5.24Q11.10 5.24 11.16 5.25L11.16 5.25L11.16 5.25Q11.27 5.22 11.40 5.26L11.40 5.26L11.40 5.26Q11.52 5.31 11.64 5.33L11.64 5.33L11.64 5.33Q11.76 5.35 11.87 5.31L11.87 5.31L11.87 5.31Q11.97 5.28 12.05 5.11L12.05 5.11L12.05 5.11Q12.17 4.82 12.27 4.61L12.27 4.61L12.27 4.61Q12.38 4.41 12.26 4.14L12.26 4.14L12.26 4.14Q12.04 4.02 11.77 3.98L11.77 3.98L11.77 3.98Q11.51 3.95 11.23 3.96L11.23 3.96L11.23 3.96Q9.79 4.00 8.51 4.94L8.51 4.94L8.51 4.94Q7.74 5.52 7.32 6.19L7.32 6.19L7.32 6.19Q6.90 6.86 6.80 7.50L6.80 7.50L6.80 7.50Q6.69 8.13 6.89 8.67L6.89 8.67L6.89 8.67Q7.08 9.20 7.56 9.49L7.56 9.49L7.56 9.49Q8.04 9.79 8.79 9.77L8.79 9.77L8.79 9.77Q9.53 9.76 10.51 9.30ZM15.48 1.68L15.48 1.68L15.48 1.68Q15.37 1.62 15.25 1.58L15.25 1.58L15.25 1.58Q15.13 1.53 14.91 1.61L14.91 1.61L14.91 1.61Q14.52 1.76 14.32 2.05L14.32 2.05L14.32 2.05Q14.13 2.34 14.12 2.61L14.12 2.61L14.12 2.61Q14.11 2.88 14.31 3.07L14.31 3.07L14.31 3.07Q14.50 3.26 14.88 3.21L14.88 3.21L14.88 3.21Q15.15 3.16 15.37 2.98L15.37 2.98L15.37 2.98Q15.58 2.79 15.69 2.54L15.69 2.54L15.69 2.54Q15.79 2.30 15.76 2.06L15.76 2.06L15.76 2.06Q15.72 1.82 15.48 1.68ZM13.83 4.97L13.83 4.97L13.83 4.97Q13.80 5.08 13.73 5.42L13.73 5.42L13.73 5.42Q13.65 5.75 13.54 6.21L13.54 6.21L13.54 6.21Q13.44 6.66 13.32 7.18L13.32 7.18L13.32 7.18Q13.20 7.69 13.10 8.15L13.10 8.15L13.10 8.15Q12.99 8.61 12.91 8.95L12.91 8.95L12.91 8.95Q12.82 9.30 12.80 9.42L12.80 9.42L12.80 9.42Q12.85 9.42 13.05 9.44L13.05 9.44L13.05 9.44Q13.24 9.46 13.45 9.46L13.45 9.46L13.45 9.46Q13.66 9.45 13.85 9.40L13.85 9.40L13.85 9.40Q14.03 9.35 14.07 9.23L14.07 9.23L14.07 9.23Q14.11 9.10 14.21 8.73L14.21 8.73L14.21 8.73Q14.31 8.36 14.43 7.86L14.43 7.86L14.43 7.86Q14.55 7.36 14.67 6.81L14.67 6.81L14.67 6.81Q14.80 6.26 14.90 5.77L14.90 5.77L14.90 5.77Q14.99 5.28 15.06 4.91L15.06 4.91L15.06 4.91Q15.12 4.54 15.12 4.41L15.12 4.41L15.12 4.41Q15.01 4.40 14.88 4.35L14.88 4.35L14.88 4.35Q14.76 4.31 14.62 4.30L14.62 4.30L14.62 4.30Q14.53 4.27 14.31 4.30L14.31 4.30L14.31 4.30Q14.10 4.33 14.01 4.33L14.01 4.33L14.01 4.33Q13.99 4.41 13.92 4.63L13.92 4.63L13.92 4.63Q13.86 4.84 13.83 4.97ZM20.47 6.80L20.47 6.80L20.47 6.80Q20.36 6.71 20.15 6.61L20.15 6.61L20.15 6.61Q19.95 6.51 19.68 6.42L19.68 6.42L19.68 6.42Q19.42 6.33 19.11 6.27L19.11 6.27L19.11 6.27Q18.80 6.20 18.49 6.16L18.49 6.16L18.49 6.16Q18.37 6.15 18.23 6.09L18.23 6.09L18.23 6.09Q18.10 6.03 17.99 5.95L17.99 5.95L17.99 5.95Q17.88 5.87 17.82 5.75L17.82 5.75L17.82 5.75Q17.75 5.63 17.77 5.49L17.77 5.49L17.78 5.46L17.78 5.46Q18.00 5.14 18.32 4.96L18.32 4.96L18.32 4.96Q18.63 4.77 18.98 4.69L18.98 4.69L18.98 4.69Q19.33 4.61 19.69 4.60L19.69 4.60L19.69 4.60Q20.05 4.59 20.34 4.62L20.34 4.62L20.34 4.62Q20.50 4.63 20.64 4.66L20.64 4.66L20.64 4.66Q20.78 4.69 20.92 4.68L20.92 4.68L20.92 4.68Q20.94 4.68 20.97 4.61L20.97 4.61L20.97 4.61Q21 4.54 21.02 4.46L21.02 4.46L21.02 4.46Q21.04 4.38 21.07 4.31L21.07 4.31L21.07 4.31Q21.10 4.24 21.14 4.21L21.14 4.21L21.14 4.21Q21.20 4.06 21.29 3.96L21.29 3.96L21.29 3.96Q21.39 3.85 21.36 3.70L21.36 3.70L21.36 3.70Q21.31 3.65 21.20 3.61L21.20 3.61L21.20 3.61Q21.08 3.57 21.01 3.54L21.01 3.54L21.01 3.54Q20.71 3.44 20.29 3.44L20.29 3.44L20.29 3.44Q19.87 3.43 19.40 3.52L19.40 3.52L19.40 3.52Q18.93 3.61 18.46 3.78L18.46 3.78L18.46 3.78Q17.99 3.95 17.60 4.20L17.60 4.20L17.60 4.20Q17.21 4.45 16.93 4.78L16.93 4.78L16.93 4.78Q16.65 5.11 16.56 5.52L16.56 5.52L16.56 5.52Q16.46 5.94 16.55 6.20L16.55 6.20L16.55 6.20Q16.63 6.47 16.83 6.64L16.83 6.64L16.83 6.64Q17.02 6.82 17.30 6.92L17.30 6.92L17.30 6.92Q17.57 7.01 17.87 7.08L17.87 7.08L17.87 7.08Q18.17 7.15 18.47 7.22L18.47 7.22L18.47 7.22Q18.76 7.29 19.00 7.41L19.00 7.41L19.00 7.41Q19.11 7.46 19.24 7.57L19.24 7.57L19.24 7.57Q19.38 7.69 19.35 7.85L19.35 7.85L19.35 7.85Q19.28 8.23 18.72 8.46L18.72 8.46L18.72 8.46Q18.16 8.69 17.29 8.67L17.29 8.67L17.29 8.67Q17.15 8.67 16.99 8.61L16.99 8.61L16.99 8.61Q16.83 8.55 16.67 8.46L16.67 8.46L16.67 8.46Q16.51 8.37 16.38 8.26L16.38 8.26L16.38 8.26Q16.25 8.15 16.17 8.05L16.17 8.05L16.00 7.88L16.00 7.88Q15.72 8.11 15.57 8.48L15.57 8.48L15.57 8.48Q15.43 8.85 15.30 9.11L15.30 9.11L15.30 9.11Q15.67 9.35 16.07 9.51L16.07 9.51L16.07 9.51Q16.46 9.67 16.95 9.70L16.95 9.70L16.95 9.70Q17.26 9.72 17.66 9.67L17.66 9.67L17.66 9.67Q18.06 9.63 18.47 9.54L18.47 9.54L18.47 9.54Q18.89 9.45 19.29 9.28L19.29 9.28L19.29 9.28Q19.68 9.11 20.00 8.88L20.00 8.88L20.00 8.88Q20.31 8.64 20.51 8.31L20.51 8.31L20.51 8.31Q20.71 7.98 20.71 7.56L20.71 7.56L20.71 7.56Q20.71 7.29 20.69 7.13L20.69 7.13L20.69 7.13Q20.66 6.97 20.47 6.80ZM26.11 6.80L26.11 6.80L26.11 6.80Q26.00 6.71 25.80 6.61L25.80 6.61L25.80 6.61Q25.59 6.51 25.33 6.42L25.33 6.42L25.33 6.42Q25.06 6.33 24.75 6.27L24.75 6.27L24.75 6.27Q24.44 6.20 24.14 6.16L24.14 6.16L24.14 6.16Q24.01 6.15 23.88 6.09L23.88 6.09L23.88 6.09Q23.74 6.03 23.63 5.95L23.63 5.95L23.63 5.95Q23.52 5.87 23.46 5.75L23.46 5.75L23.46 5.75Q23.39 5.63 23.41 5.49L23.41 5.49L23.42 5.46L23.42 5.46Q23.65 5.14 23.96 4.96L23.96 4.96L23.96 4.96Q24.28 4.77 24.63 4.69L24.63 4.69L24.63 4.69Q24.98 4.61 25.33 4.60L25.33 4.60L25.33 4.60Q25.69 4.59 25.98 4.62L25.98 4.62L25.98 4.62Q26.14 4.63 26.28 4.66L26.28 4.66L26.28 4.66Q26.42 4.69 26.56 4.68L26.56 4.68L26.56 4.68Q26.59 4.68 26.61 4.61L26.61 4.61L26.61 4.61Q26.64 4.54 26.66 4.46L26.66 4.46L26.66 4.46Q26.68 4.38 26.71 4.31L26.71 4.31L26.71 4.31Q26.74 4.24 26.78 4.21L26.78 4.21L26.78 4.21Q26.84 4.06 26.94 3.96L26.94 3.96L26.94 3.96Q27.03 3.85 27.01 3.70L27.01 3.70L27.01 3.70Q26.95 3.65 26.84 3.61L26.84 3.61L26.84 3.61Q26.73 3.57 26.66 3.54L26.66 3.54L26.66 3.54Q26.35 3.44 25.93 3.44L25.93 3.44L25.93 3.44Q25.51 3.43 25.04 3.52L25.04 3.52L25.04 3.52Q24.57 3.61 24.10 3.78L24.10 3.78L24.10 3.78Q23.63 3.95 23.24 4.20L23.24 4.20L23.24 4.20Q22.85 4.45 22.57 4.78L22.57 4.78L22.57 4.78Q22.29 5.11 22.20 5.52L22.20 5.52L22.20 5.52Q22.11 5.94 22.19 6.20L22.19 6.20L22.19 6.20Q22.27 6.47 22.47 6.64L22.47 6.64L22.47 6.64Q22.67 6.82 22.94 6.92L22.94 6.92L22.94 6.92Q23.21 7.01 23.51 7.08L23.51 7.08L23.51 7.08Q23.81 7.15 24.11 7.22L24.11 7.22L24.11 7.22Q24.40 7.29 24.64 7.41L24.64 7.41L24.64 7.41Q24.75 7.46 24.89 7.57L24.89 7.57L24.89 7.57Q25.02 7.69 24.99 7.85L24.99 7.85L24.99 7.85Q24.92 8.23 24.36 8.46L24.36 8.46L24.36 8.46Q23.80 8.69 22.93 8.67L22.93 8.67L22.93 8.67Q22.79 8.67 22.63 8.61L22.63 8.61L22.63 8.61Q22.47 8.55 22.31 8.46L22.31 8.46L22.31 8.46Q22.15 8.37 22.02 8.26L22.02 8.26L22.02 8.26Q21.90 8.15 21.81 8.05L21.81 8.05L21.64 7.88L21.64 7.88Q21.36 8.11 21.22 8.48L21.22 8.48L21.22 8.48Q21.07 8.85 20.94 9.11L20.94 9.11L20.94 9.11Q21.31 9.35 21.71 9.51L21.71 9.51L21.71 9.51Q22.11 9.67 22.60 9.70L22.60 9.70L22.60 9.70Q22.90 9.72 23.30 9.67L23.30 9.67L23.30 9.67Q23.70 9.63 24.12 9.54L24.12 9.54L24.12 9.54Q24.53 9.45 24.93 9.28L24.93 9.28L24.93 9.28Q25.33 9.11 25.64 8.88L25.64 8.88L25.64 8.88Q25.96 8.64 26.15 8.31L26.15 8.31L26.15 8.31Q26.35 7.98 26.35 7.56L26.35 7.56L26.35 7.56Q26.35 7.29 26.33 7.13L26.33 7.13L26.33 7.13Q26.31 6.97 26.11 6.80ZM31.05 3.51L31.05 3.51L31.05 3.51Q30.91 3.53 30.74 3.55L30.74 3.55L30.74 3.55Q30.56 3.57 30.39 3.63L30.39 3.63L30.39 3.63Q30.20 3.70 29.98 3.80L29.98 3.80L29.98 3.80Q29.76 3.91 29.60 4.00L29.60 4.00L29.60 4.00Q28.97 4.34 28.50 4.82L28.50 4.82L28.50 4.82Q28.03 5.29 27.73 5.84L27.73 5.84L27.73 5.84Q27.44 6.38 27.34 6.95L27.34 6.95L27.34 6.95Q27.24 7.52 27.36 8.03L27.36 8.03L27.36 8.03Q27.47 8.54 27.82 8.94L27.82 8.94L27.82 8.94Q28.17 9.34 28.76 9.56L28.76 9.56L28.76 9.56Q29.05 9.67 29.36 9.69L29.36 9.69L29.36 9.69Q30.13 9.73 30.82 9.43L30.82 9.43L30.82 9.43Q31.51 9.13 32.05 8.62L32.05 8.62L32.05 8.62Q32.58 8.12 32.94 7.47L32.94 7.47L32.94 7.47Q33.29 6.82 33.40 6.17L33.40 6.17L33.40 6.17Q33.50 5.52 33.33 4.91L33.33 4.91L33.33 4.91Q33.15 4.31 32.63 3.91L32.63 3.91L32.63 3.91Q32.31 3.65 31.89 3.57L31.89 3.57L31.89 3.57Q31.47 3.49 31.05 3.51ZM32.19 6.20L32.19 6.20L32.19 6.20Q32.07 6.76 31.79 7.18L31.79 7.18L31.79 7.18Q31.50 7.59 31.13 7.86L31.13 7.86L31.13 7.86Q30.76 8.13 30.35 8.27L30.35 8.27L30.35 8.27Q29.95 8.40 29.58 8.39L29.58 8.39L29.58 8.39Q29.22 8.39 28.94 8.24L28.94 8.24L28.94 8.24Q28.66 8.09 28.56 7.80L28.56 7.80L28.56 7.80Q28.48 7.56 28.49 7.29L28.49 7.29L28.49 7.29Q28.50 7.01 28.56 6.73L28.56 6.73L28.56 6.73Q28.59 6.59 28.66 6.46L28.66 6.46L28.66 6.46Q28.73 6.33 28.80 6.19L28.80 6.19L28.80 6.19Q29.11 5.60 29.51 5.25L29.51 5.25L29.51 5.25Q29.90 4.90 30.32 4.75L30.32 4.75L30.32 4.75Q30.73 4.59 31.11 4.63L31.11 4.63L31.11 4.63Q31.49 4.68 31.76 4.87L31.76 4.87L31.76 4.87Q32.03 5.07 32.16 5.41L32.16 5.41L32.16 5.41Q32.28 5.75 32.19 6.20ZM38.78 4.68L38.78 4.68L38.78 4.68Q38.82 4.62 38.88 4.49L38.88 4.49L38.88 4.49Q38.95 4.35 39.00 4.21L39.00 4.21L39.00 4.21Q39.05 4.06 39.07 3.93L39.07 3.93L39.07 3.93Q39.09 3.79 39.03 3.74L39.03 3.74L39.03 3.74Q38.44 3.64 38.00 3.72L38.00 3.72L38.00 3.72Q37.56 3.81 37.22 3.98L37.22 3.98L37.22 3.98Q36.88 4.16 36.61 4.38L36.61 4.38L36.61 4.38Q36.34 4.61 36.12 4.79L36.12 4.79L36.11 4.79L36.11 4.79Q36.13 4.61 36.17 4.41L36.17 4.41L36.17 4.41Q36.20 4.21 36.20 4.03L36.20 4.03L36.20 4.03Q36.13 3.79 36.02 3.69L36.02 3.69L36.02 3.69Q35.91 3.58 35.76 3.54L35.76 3.54L35.76 3.54Q35.64 3.51 35.45 3.54L35.45 3.54L35.45 3.54Q35.27 3.57 35.14 3.57L35.14 3.57L35.14 3.57Q35.10 3.74 35.05 3.90L35.05 3.90L35.05 3.90Q35 4.06 34.96 4.21L34.96 4.21L34.96 4.21Q34.68 5.57 34.37 6.91L34.37 6.91L34.37 6.91Q34.06 8.25 33.78 9.60L33.78 9.60L33.78 9.60Q33.87 9.62 34.05 9.63L34.05 9.63L34.05 9.63Q34.24 9.65 34.45 9.64L34.45 9.64L34.45 9.64Q34.65 9.63 34.82 9.58L34.82 9.58L34.82 9.58Q34.99 9.53 35.04 9.41L35.04 9.41L35.04 9.41Q35.13 9.20 35.22 8.83L35.22 8.83L35.22 8.83Q35.32 8.46 35.41 8.04L35.41 8.04L35.41 8.04Q35.49 7.63 35.57 7.24L35.57 7.24L35.57 7.24Q35.64 6.85 35.70 6.61L35.70 6.61L35.70 6.61Q35.88 6.34 36.14 6.04L36.14 6.04L36.14 6.04Q36.40 5.74 36.72 5.47L36.72 5.47L36.72 5.47Q37.03 5.19 37.39 4.98L37.39 4.98L37.39 4.98Q37.76 4.77 38.16 4.68L38.16 4.68L38.16 4.68Q38.19 4.66 38.28 4.66L38.28 4.66L38.28 4.66Q38.36 4.66 38.37 4.68L38.37 4.68L38.37 4.68Q38.47 4.68 38.57 4.68L38.57 4.68L38.57 4.68Q38.67 4.69 38.78 4.68Z"></path></g><!----><g data-v-423bf9ae="" id="e54c978f-9449-431c-9d2d-9004888d06c9" transform="matrix(2.8125,0,0,2.8125,-7.170000076293945,0)" stroke="none" fill="black"><path d="M2.83 18.247l26.34-9.124L2.83 0zM29.17 32V13.753L2.83 22.877z"></path></g><!----></svg>